<?xml version="1.0" encoding="UTF-8" standalone="no"?>
<!-- Created with Inkscape (http://www.inkscape.org/) -->
<svg xmlns:dc="http://purl.org/dc/elements/1.1/" xmlns:cc="http://creativecommons.org/ns#" xmlns:rdf="http://www.w3.org/1999/02/22-rdf-syntax-ns#" xmlns:svg="http://www.w3.org/2000/svg" xmlns="http://www.w3.org/2000/svg" xmlns:xlink="http://www.w3.org/1999/xlink" xmlns:sodipodi="http://sodipodi.sourceforge.net/DTD/sodipodi-0.dtd" xmlns:inkscape="http://www.inkscape.org/namespaces/inkscape" width="30" height="30" id="svg2" sodipodi:version="0.32" inkscape:version="0.46" version="1.0" sodipodi:docbase="D:\gfx" sodipodi:docname="icon_puzzle2_yellow.svg" inkscape:output_extension="org.inkscape.output.svg.inkscape" inkscape:export-filename="D:\proj\icons\released\icon_puzzle2_yellow.png" inkscape:export-xdpi="45" inkscape:export-ydpi="45" sodipodi:modified="TRUE">
  <defs id="defs4">
    <linearGradient id="linearGradient3410">
      <stop style="stop-color: rgb(255, 212, 150); stop-opacity: 1;" offset="0" id="stop3412"/>
      <stop style="stop-color: rgb(250, 149, 3); stop-opacity: 1;" offset="1" id="stop3414"/>
    </linearGradient>
    <linearGradient id="linearGradient3382">
      <stop style="stop-color: rgb(186, 189, 182); stop-opacity: 1;" offset="0" id="stop3384"/>
      <stop style="stop-color: rgb(101, 105, 95); stop-opacity: 1;" offset="1" id="stop3386"/>
    </linearGradient>
    <linearGradient inkscape:collect="always" xlink:href="#linearGradient3410" id="linearGradient3416" x1="7.3085504" y1="8.7918215" x2="21.50186" y2="18.30855" gradientUnits="userSpaceOnUse"/>
  </defs>
  <sodipodi:namedview id="base" pagecolor="#ffffff" bordercolor="#666666" borderopacity="1.0" inkscape:pageopacity="0.0" inkscape:pageshadow="2" inkscape:zoom="26.9" inkscape:cx="15" inkscape:cy="15" inkscape:document-units="px" inkscape:current-layer="layer1" width="30px" height="30px" showgrid="false" gridtolerance="10000" inkscape:grid-points="true" inkscape:window-width="1680" inkscape:window-height="1003" inkscape:window-x="0" inkscape:window-y="0" inkscape:snap-global="false" showguides="true" inkscape:guide-bbox="true">
    <inkscape:grid type="xygrid" id="grid2396" visible="true" enabled="true"/>
  </sodipodi:namedview>
  <metadata id="metadata7">
    <rdf:RDF>
      <cc:Work rdf:about="">
        <dc:format>image/svg+xml</dc:format>
        <dc:type rdf:resource="http://purl.org/dc/dcmitype/StillImage"/>
        <dc:title>icon_puzzle2_yellow</dc:title>
        <dc:date>2008-05-10</dc:date>
        <dc:creator>
          <cc:Agent>
            <dc:title>Jean-Victor Balin</dc:title>
          </cc:Agent>
        </dc:creator>
        <dc:language>fr-FR</dc:language>
        <dc:subject>
          <rdf:Bag>
            <rdf:li>icon</rdf:li>
            <rdf:li>puzzle</rdf:li>
            <rdf:li>yellow</rdf:li>
          </rdf:Bag>
        </dc:subject>
        <dc:description>jean.victor.balin@gmail.com</dc:description>
        <cc:license rdf:resource="http://creativecommons.org/licenses/publicdomain/"/>
      </cc:Work>
      <cc:License rdf:about="http://creativecommons.org/licenses/publicdomain/">
        <cc:permits rdf:resource="http://creativecommons.org/ns#Reproduction"/>
        <cc:permits rdf:resource="http://creativecommons.org/ns#Distribution"/>
        <cc:permits rdf:resource="http://creativecommons.org/ns#DerivativeWorks"/>
      </cc:License>
    </rdf:RDF>
  </metadata>
  <g inkscape:label="Calque 1" inkscape:groupmode="layer" id="layer1">
    <path style="fill: rgb(206, 92, 0); fill-opacity: 1;" d="M 13.0625,3.03125 C 12.56418,3.0278338 12.085279,3.2242806 11.732905,3.5766546 C 11.380531,3.9290286 11.184084,4.4079296 11.1875,4.90625 L 11.1875,6.875 L 7.3125,6.875 C 6.8141796,6.8715838 6.3352786,7.0680306 5.9829046,7.4204046 C 5.6305306,7.7727786 5.4340838,8.2516796 5.4375,8.75 L 5.4375,11.6875 L 4.0539034,11.6875 C 3.555583,11.684084 3.076682,11.880531 2.724308,12.232905 C 2.371934,12.585279 2.1754872,13.06418 2.1789034,13.5625 L 2.1789034,18.375 C 2.1754872,18.87332 2.371934,19.352221 2.724308,19.704595 C 3.076682,20.056969 3.555583,20.253416 4.0539034,20.25 L 5.4375,20.25 L 5.4375,25.09375 C 5.4340838,25.59207 5.6305306,26.070971 5.9829046,26.423345 C 6.3352786,26.775719 6.8141796,26.972166 7.3125,26.96875 L 12.125,26.96875 C 12.62332,26.972166 13.102221,26.775719 13.454595,26.423345 C 13.806969,26.070971 14.003416,25.59207 14,25.09375 L 14,23.125 L 16,23.125 L 16,25.09375 C 15.996584,25.59207 16.193031,26.070971 16.545405,26.423345 C 16.897779,26.775719 17.37668,26.972166 17.875,26.96875 L 22.6875,26.96875 C 23.18582,26.972166 23.664721,26.775719 24.017095,26.423345 C 24.369469,26.070971 24.565916,25.59207 24.5625,25.09375 L 24.5625,20.25 L 26.013011,20.25 C 26.511331,20.253416 26.990232,20.056969 27.342606,19.704595 C 27.69498,19.352221 27.891427,18.87332 27.888011,18.375 L 27.888011,13.5625 C 27.891427,13.06418 27.69498,12.585279 27.342606,12.232905 C 26.990232,11.880531 26.511331,11.684084 26.013011,11.6875 L 24.5625,11.6875 L 24.5625,8.75 C 24.565916,8.2516796 24.369469,7.7727786 24.017095,7.4204046 C 23.664721,7.0680306 23.18582,6.8715838 22.6875,6.875 L 18.8125,6.875 L 18.8125,4.90625 C 18.815916,4.4079296 18.619469,3.9290286 18.267095,3.5766546 C 17.914721,3.2242806 17.43582,3.0278338 16.9375,3.03125 L 13.0625,3.03125 z" id="path3214" sodipodi:nodetypes="cscccscccsccscccsccsccccsccscccsccscccscccscc"/>
    <path style="opacity: 1; fill: url(&quot;#linearGradient3416&quot;) rgb(0, 0, 0); fill-opacity: 1;" d="M 13.0625 4.90625 L 13.0625 8.75 L 7.3125 8.75 L 7.3125 13.5625 L 4 13.5625 L 4 18.375 L 7.3125 18.375 L 7.3125 25.09375 L 12.125 25.09375 L 12.125 21.25 L 17.875 21.25 L 17.875 25.09375 L 22.6875 25.09375 L 22.6875 18.375 L 26 18.375 L 26 13.5625 L 22.6875 13.5625 L 22.6875 8.75 L 16.9375 8.75 L 16.9375 4.90625 L 13.0625 4.90625 z " id="path3210"/>
  </g>
</svg>