<?xml version="1.0" encoding="UTF-8" standalone="no"?>
<!-- Created with Inkscape (http://www.inkscape.org/) -->
<svg xmlns:dc="http://purl.org/dc/elements/1.1/" xmlns:cc="http://creativecommons.org/ns#" xmlns:rdf="http://www.w3.org/1999/02/22-rdf-syntax-ns#" xmlns:svg="http://www.w3.org/2000/svg" xmlns="http://www.w3.org/2000/svg" xmlns:xlink="http://www.w3.org/1999/xlink" xmlns:sodipodi="http://sodipodi.sourceforge.net/DTD/sodipodi-0.dtd" xmlns:inkscape="http://www.inkscape.org/namespaces/inkscape" width="323.70395" height="289.32275" id="svg2" version="1.1" inkscape:version="0.48.0 r9654" sodipodi:docname="PiezaRompecabezas.svg">
  <defs id="defs4">
    <linearGradient id="linearGradient3839">
      <stop id="stop3841" offset="0" style="stop-color: rgb(200, 200, 0); stop-opacity: 1;"/>
      <stop id="stop3843" offset="1" style="stop-color: rgb(230, 230, 0); stop-opacity: 1;"/>
    </linearGradient>
    <linearGradient id="linearGradient3809">
      <stop style="stop-color: rgb(150, 0, 0); stop-opacity: 1;" offset="0" id="stop3811"/>
      <stop style="stop-color: rgb(255, 120, 120); stop-opacity: 1;" offset="1" id="stop3813"/>
    </linearGradient>
    <linearGradient id="linearGradient3801">
      <stop style="stop-color: rgb(0, 100, 0); stop-opacity: 1;" offset="0" id="stop3803"/>
      <stop style="stop-color: rgb(120, 220, 120); stop-opacity: 1;" offset="1" id="stop3805"/>
    </linearGradient>
    <filter inkscape:collect="always" id="filter3776" color-interpolation-filters="sRGB">
      <feGaussianBlur inkscape:collect="always" stdDeviation="2.7425" id="feGaussianBlur3778"/>
    </filter>
    <filter inkscape:collect="always" id="filter3789" color-interpolation-filters="sRGB">
      <feGaussianBlur inkscape:collect="always" stdDeviation="2.9669533" id="feGaussianBlur3791"/>
    </filter>
    <linearGradient inkscape:collect="always" xlink:href="#linearGradient3801" id="linearGradient3807" x1="191.25697" y1="326.67377" x2="379.97977" y2="519.01721" gradientUnits="userSpaceOnUse"/>
    <linearGradient inkscape:collect="always" xlink:href="#linearGradient3809" id="linearGradient3815" x1="470.09094" y1="286.65118" x2="653.50226" y2="471.14389" gradientUnits="userSpaceOnUse"/>
    <linearGradient inkscape:collect="always" xlink:href="#linearGradient3809" id="linearGradient3825" gradientUnits="userSpaceOnUse" x1="470.09094" y1="286.65118" x2="653.50226" y2="471.14389"/>
    <linearGradient inkscape:collect="always" xlink:href="#linearGradient3801" id="linearGradient3833" gradientUnits="userSpaceOnUse" x1="191.25697" y1="326.67377" x2="379.97977" y2="519.01721"/>
    <linearGradient inkscape:collect="always" xlink:href="#linearGradient3839" id="linearGradient3837" gradientUnits="userSpaceOnUse" x1="191.25697" y1="326.67377" x2="379.97977" y2="519.01721" gradientTransform="matrix(-0.707107, -0.707107, 0.707107, -0.707107, 309.191, 930.226)"/>
    <filter inkscape:collect="always" id="filter3852" color-interpolation-filters="sRGB">
      <feGaussianBlur inkscape:collect="always" stdDeviation="3.2665625" id="feGaussianBlur3854"/>
    </filter>
    <linearGradient inkscape:collect="always" xlink:href="#linearGradient3801" id="linearGradient3860" gradientUnits="userSpaceOnUse" x1="191.25697" y1="326.67377" x2="379.97977" y2="519.01721"/>
    <linearGradient inkscape:collect="always" xlink:href="#linearGradient3839" id="linearGradient3862" gradientUnits="userSpaceOnUse" gradientTransform="matrix(-0.707107, -0.707107, 0.707107, -0.707107, 309.191, 930.226)" x1="191.25697" y1="326.67377" x2="379.97977" y2="519.01721"/>
  </defs>
  <sodipodi:namedview id="base" pagecolor="#ffffff" bordercolor="#666666" borderopacity="1.0" inkscape:pageopacity="0.0" inkscape:pageshadow="2" inkscape:zoom="0.7642578" inkscape:cx="318.41218" inkscape:cy="210.03514" inkscape:document-units="px" inkscape:current-layer="layer1" showgrid="false" showguides="true" inkscape:guide-bbox="true" inkscape:window-width="1277" inkscape:window-height="778" inkscape:window-x="-8" inkscape:window-y="-8" inkscape:window-maximized="1" fit-margin-top="0" fit-margin-left="0" fit-margin-right="0" fit-margin-bottom="0"/>
  <metadata id="metadata7">
    <rdf:RDF>
      <cc:Work rdf:about="">
        <dc:format>image/svg+xml</dc:format>
        <dc:type rdf:resource="http://purl.org/dc/dcmitype/StillImage"/>
        <dc:title/>
      </cc:Work>
    </rdf:RDF>
  </metadata>
  <g inkscape:label="Capa 1" inkscape:groupmode="layer" id="layer1" transform="translate(-188.949, -249.104)">
    <g id="g3821">
      <path inkscape:connector-curvature="0" id="rect3777" d="m 380.78823,420.57033 c 0,-8.01361 -6.51763,-14.5 -14.53125,-14.5 -5.3276,0 -9.97667,2.87676 -12.5,7.15625 l -12.78125,0 c 1.24257,-25.0616 8.59152,-48.50606 20.625,-68.875 0.0588,-0.0995 0.0973,-0.21319 0.15625,-0.3125 -20.11277,-11.79099 -43.21582,-19.01096 -67.90625,-20.25 l 0,12.03125 c 4.04951,2.57417 6.75,7.0962 6.75,12.25 0,8.01362 -6.51763,14.5 -14.53125,14.5 -8.01361,0 -14.5,-6.48638 -14.5,-14.5 0,-5.32389 2.88169,-9.97546 7.15625,-12.5 l 0,-11.78125 c -24.71627,1.2294 -47.83697,8.44561 -67.96875,20.25 0.0617,0.1038 0.12608,0.20855 0.1875,0.3125 12.03348,20.36894 19.38244,43.8134 20.625,68.875 l -12.8125,0 c -2.52454,-4.27456 -7.17611,-7.15625 -12.5,-7.15625 -8.0136,0 -14.5,6.48639 -14.5,14.5 0,8.01362 6.4864,14.53125 14.5,14.53125 5.1538,0 9.67584,-2.70049 12.25,-6.75 l 13.0625,0 c -1.24415,25.08393 -8.60305,48.5566 -20.65625,68.9375 -0.019,0.0321 -0.0428,0.0618 -0.0625,0.0937 -0.0638,0.10348 -0.12572,0.20882 -0.1875,0.3125 20.12559,11.82044 43.253,19.03841 67.96875,20.28125 l 0,-11.78125 c -4.27949,-2.52332 -7.15625,-7.17239 -7.15625,-12.5 0,-8.01361 6.48638,-14.53125 14.5,-14.53125 8.01362,0 14.53125,6.51764 14.53125,14.53125 0,5.15548 -2.69828,9.67627 -6.75,12.25 l 0,12.03125 c 24.76085,-1.2251 47.93586,-8.44371 68.09375,-20.28125 -0.0592,-0.0993 -0.10153,-0.20963 -0.15625,-0.3125 -0.0176,-0.033 -0.0436,-0.0618 -0.0625,-0.0937 -12.0532,-20.3809 -19.4121,-43.85357 -20.65625,-68.9375 l 13.03125,0 c 2.57373,4.05172 7.09452,6.75 12.25,6.75 8.01362,0 14.53125,-6.51763 14.53125,-14.53125 z" style="fill: url(&quot;#linearGradient3860&quot;) rgb(0, 0, 0); fill-opacity: 1; stroke: rgb(0, 50, 0); stroke-width: 1; stroke-miterlimit: 4; stroke-opacity: 1; stroke-dasharray: none; stroke-dashoffset: 0pt;"/>
      <path d="m 274.9375,327.875 c -21.30158,1.63825 -41.28147,7.81509 -59.03125,17.625 11.29332,20.15902 18.22589,43.09391 19.4375,67.53125 A 3.7797039,3.7797039 0 0 1 231.5625,417 l -12.8125,0 a 3.7797039,3.7797039 0 0 1 -3.25,-1.84375 c -1.86904,-3.16467 -5.28988,-5.3125 -9.25,-5.3125 -5.97422,0 -10.71875,4.74452 -10.71875,10.71875 0,5.97424 4.75435,10.75 10.71875,10.75 3.8336,0 7.15524,-1.99962 9.0625,-5 a 3.7797039,3.7797039 0 0 1 3.1875,-1.75 l 13.0625,0 a 3.7797039,3.7797039 0 0 1 3.78125,3.96875 c -0.20881,4.21 -0.58321,8.38547 -1.125,12.5 15.39928,-1.5533 31.71845,-7.65876 47.5,-21.53125 18.28258,-16.07098 38.26949,-21.56174 57,-21.59375 2.80653,-18.77014 8.98371,-36.44127 17.90625,-52.375 -17.73909,-9.80974 -37.71089,-16.00748 -59,-17.65625 l 0,6.1875 c 4.06175,3.35555 6.75,8.33958 6.75,14 0,10.06282 -8.25951,18.28125 -18.3125,18.28125 -10.05299,0 -18.28125,-8.22825 -18.28125,-18.28125 0,-5.84379 2.86437,-10.96341 7.15625,-14.3125 l 0,-5.875 z" id="path2994" style="opacity: 0.208163; fill: rgb(255, 255, 255); stroke: none; filter: url(&quot;#filter3776&quot;);" inkscape:original="M 274.9375 327.875 C 253.63592 329.51325 233.65603 335.69009 215.90625 345.5 C 227.19957 365.65902 234.13214 388.59391 235.34375 413.03125 A 3.7797039 3.7797039 0 0 1 231.5625 417 L 218.75 417 A 3.7797039 3.7797039 0 0 1 215.5 415.15625 C 213.63096 411.99158 210.21012 409.84375 206.25 409.84375 C 200.27578 409.84375 195.53125 414.58827 195.53125 420.5625 C 195.53125 426.53674 200.2856 431.3125 206.25 431.3125 C 210.0836 431.3125 213.40524 429.31288 215.3125 426.3125 A 3.7797039 3.7797039 0 0 1 218.5 424.5625 L 231.5625 424.5625 A 3.7797039 3.7797039 0 0 1 235.34375 428.53125 C 235.13494 432.74125 234.76054 436.91672 234.21875 441.03125 C 249.61803 439.47795 265.9372 433.37249 281.71875 419.5 C 300.00133 403.42902 319.98824 397.93826 338.71875 397.90625 C 341.52528 379.13611 347.70246 361.46498 356.625 345.53125 C 338.88591 335.72151 318.91411 329.52377 297.625 327.875 L 297.625 334.0625 C 301.68675 337.41805 304.375 342.40208 304.375 348.0625 C 304.375 358.12532 296.11549 366.34375 286.0625 366.34375 C 276.00951 366.34375 267.78125 358.1155 267.78125 348.0625 C 267.78125 342.21871 270.64562 337.09909 274.9375 333.75 L 274.9375 327.875 z " inkscape:radius="0" sodipodi:type="inkscape:offset"/>
    </g>
    <g id="g3817" transform="translate(-153.09, -30.057)">
      <path style="fill: url(&quot;#linearGradient3825&quot;) rgb(0, 0, 0); fill-opacity: 1; stroke: rgb(50, 0, 0); stroke-width: 1; stroke-miterlimit: 4; stroke-opacity: 1; stroke-dasharray: none; stroke-dashoffset: 0pt;" d="m 562.13837,282.41922 c -8.01361,0 -14.5,6.51763 -14.5,14.53125 0,5.3276 2.87676,9.97667 7.15625,12.5 l 0,12.78125 c -25.0616,-1.24257 -48.50606,-8.59152 -68.875,-20.625 -0.0995,-0.0588 -0.21319,-0.0973 -0.3125,-0.15625 -11.79099,20.11277 -19.01096,43.21582 -20.25,67.90625 l 12.03125,0 c 2.57417,-4.04951 7.0962,-6.75 12.25,-6.75 8.01362,0 14.5,6.51763 14.5,14.53125 0,8.01361 -6.48638,14.5 -14.5,14.5 -5.32389,0 -9.97546,-2.88169 -12.5,-7.15625 l -11.78125,0 c 1.2294,24.71627 8.44561,47.83697 20.25,67.96875 0.1038,-0.0617 0.20855,-0.12608 0.3125,-0.1875 20.36894,-12.03348 43.8134,-19.38244 68.875,-20.625 l 0,12.8125 c -4.27456,2.52454 -7.15625,7.17611 -7.15625,12.5 0,8.0136 6.48639,14.5 14.5,14.5 8.01362,0 14.53125,-6.4864 14.53125,-14.5 0,-5.1538 -2.70049,-9.67584 -6.75,-12.25 l 0,-13.0625 c 25.08393,1.24415 48.5566,8.60305 68.9375,20.65625 0.0321,0.019 0.0618,0.0428 0.0937,0.0625 0.10348,0.0638 0.20882,0.12572 0.3125,0.1875 11.82044,-20.12559 19.03841,-43.253 20.28125,-67.96875 l -11.78125,0 c -2.52332,4.27949 -7.17239,7.15625 -12.5,7.15625 -8.01361,0 -14.53125,-6.48638 -14.53125,-14.5 0,-8.01362 6.51764,-14.53125 14.53125,-14.53125 5.15548,0 9.67627,2.69828 12.25,6.75 l 12.03125,0 c -1.2251,-24.76085 -8.44371,-47.93586 -20.28125,-68.09375 -0.0993,0.0592 -0.20963,0.10153 -0.3125,0.15625 -0.033,0.0176 -0.0618,0.0436 -0.0937,0.0625 -20.3809,12.0532 -43.85357,19.4121 -68.9375,20.65625 l 0,-13.03125 c 4.05172,-2.57373 6.75,-7.09452 6.75,-12.25 0,-8.01362 -6.51763,-14.53125 -14.53125,-14.53125 z" id="path2992" inkscape:connector-curvature="0"/>
      <path id="path3784" d="m 562.125,286.28125 c -5.9061,0 -10.625,4.74004 -10.625,10.65625 0,3.9284 2.11334,7.30677 5.25,9.15625 a 3.8872593,3.8872593 0 0 1 1.90625,3.34375 l 0,12.78125 a 3.8872593,3.8872593 0 0 1 -4.0625,3.875 c -24.4161,-1.21057 -47.31828,-8.13631 -67.46875,-19.40625 -9.76115,17.67895 -15.93793,37.57646 -17.59375,58.78125 l 6.03125,0 c 3.37553,-4.07142 8.38069,-6.75 14.0625,-6.75 10.12113,0 18.375,8.29522 18.375,18.40625 0,10.11102 -8.26397,18.375 -18.375,18.375 -5.86555,0 -11.00531,-2.85443 -14.375,-7.15625 l -5.71875,0 c 0.2035,2.62102 0.50362,5.2332 0.84375,7.8125 24.91081,4.88824 56.44908,2.68132 89.84375,-20.59375 36.81704,-25.66036 69.75977,-26.24084 94,-19.96875 -2.57307,-17.53776 -8.25366,-34.04925 -16.5,-48.96875 -20.18461,11.31679 -43.15313,18.25496 -67.625,19.46875 a 3.8872593,3.8872593 0 0 1 -4.0625,-3.875 l 0,-13.03125 a 3.8872593,3.8872593 0 0 1 1.78125,-3.28125 c 2.97213,-1.88795 4.96875,-5.16948 4.96875,-8.96875 0,-5.90611 -4.75014,-10.65625 -10.65625,-10.65625 z" style="opacity: 0.2; fill: rgb(255, 255, 255); stroke: none; filter: url(&quot;#filter3789&quot;);" inkscape:connector-curvature="0"/>
    </g>
    <g id="g3856">
      <path style="fill: url(&quot;#linearGradient3862&quot;) rgb(0, 0, 0); fill-opacity: 1; stroke: rgb(55, 50, 0); stroke-width: 1; stroke-miterlimit: 4; stroke-opacity: 1; stroke-dasharray: none; stroke-dashoffset: 0pt;" d="m 337.32105,363.58026 c -5.66648,5.66648 -5.64439,14.86171 0.0221,20.52819 3.76718,3.76718 9.08875,5.0204 13.89907,3.7786 l 9.03771,9.03771 c -18.59986,16.8426 -40.37409,28.22384 -63.28606,34.11791 -0.11194,0.0288 -0.21955,0.0819 -0.33146,0.11048 5.88439,22.55937 17.11542,44.00098 33.69806,62.33588 l 8.50738,-8.50738 c -1.04322,-4.68364 0.2448,-9.79074 3.88909,-13.43502 5.66648,-5.66649 14.8617,-5.64439 20.52819,0.0221 5.66648,5.66648 5.66648,14.83961 0,20.5061 -3.76456,3.76456 -9.09138,5.01605 -13.89907,3.7786 l -8.3306,8.3306 c 18.34636,16.60773 39.79779,27.8539 62.38008,33.74225 0.0298,-0.11702 0.0583,-0.23661 0.0884,-0.35355 5.89407,-22.91197 17.2753,-44.68621 34.11791,-63.28606 l 9.0598,9.05981 c -1.23745,4.80769 0.014,10.13451 3.7786,13.89907 5.66648,5.66647 14.83962,5.66648 20.5061,0 5.66649,-5.66649 5.68857,-14.86173 0.0221,-20.5282 -3.64429,-3.64428 -8.75139,-4.93231 -13.43503,-3.88908 l -9.23658,-9.23659 c 18.61676,-16.85727 40.41797,-28.25142 63.35235,-34.14 0.0361,-0.009 0.074,-0.0134 0.11045,-0.0221 0.11828,-0.0281 0.23655,-0.0588 0.35355,-0.0884 -5.87263,-22.58925 -17.1223,-44.04667 -33.72016,-62.40217 l -8.3306,8.3306 c 1.2418,4.81032 -0.0114,10.13188 -3.7786,13.89907 -5.66648,5.66648 -14.86171,5.68858 -20.52819,0.0221 -5.66649,-5.66649 -5.66648,-14.88381 0,-20.55029 3.64547,-3.64548 8.75012,-4.93419 13.43503,-3.88909 l 8.50737,-8.50738 c -18.37484,-16.64229 -39.86637,-27.92517 -62.49056,-33.80854 -0.0283,0.11208 -0.0764,0.22002 -0.11048,0.33145 -0.0109,0.0358 -0.0129,0.0745 -0.0221,0.11045 -5.88858,22.93438 -17.28273,44.73559 -34.14,63.35235 l -9.21449,-9.21448 c 1.0451,-4.6849 -0.24361,-9.78956 -3.88909,-13.43503 -5.66648,-5.66649 -14.8838,-5.66649 -20.55029,0 z" id="path3829" inkscape:connector-curvature="0"/>
      <path id="path3847" d="m 409.03125,329.34375 c -6.43266,21.91368 -17.72322,42.68709 -33.9375,60.59375 a 5.550487,5.550487 0 0 1 -8.0625,0.21875 l -9.21875,-9.21875 a 5.550487,5.550487 0 0 1 -1.46875,-5.15625 c 0.65084,-2.91755 -0.12481,-5.96856 -2.40625,-8.25 -3.5358,-3.53581 -9.15168,-3.53582 -12.6875,0 -3.54302,3.54302 -3.5262,9.06756 0.0312,12.625 2.3529,2.3529 5.62081,3.11123 8.59375,2.34375 a 5.550487,5.550487 0 0 1 5.3125,1.46875 l 9.03125,9.0625 A 5.550487,5.550487 0 0 1 364,401.0625 c -17.8715,16.18306 -38.6124,27.41069 -60.46875,33.84375 2.82826,9.39029 6.64702,18.54828 11.4375,27.3125 29.88723,-1.52512 61.83028,-9.86308 90.65625,-31.375 29.84248,-22.27051 62.10284,-28.01817 91.6875,-25.90625 -5.04068,-10.50743 -11.4433,-20.52096 -19.1875,-29.8125 l -2.21875,2.21875 c 0.44179,5.65012 -1.36375,11.45751 -5.65625,15.75 -7.78273,7.78273 -20.60909,7.82841 -28.40625,0.0312 -7.79717,-7.79717 -7.79715,-20.64035 0,-28.4375 4.17842,-4.17843 9.79332,-5.98491 15.28125,-5.6875 l 2.4375,-2.4375 C 444.3304,343.84486 427.12065,334.78326 409.03125,329.3437 z" style="opacity: 0.2; fill: rgb(255, 255, 255); fill-opacity: 1; stroke: none; filter: url(&quot;#filter3852&quot;);" inkscape:connector-curvature="0"/>
    </g>
  </g>
</svg>