<?xml version="1.0" encoding="UTF-8" standalone="no"?>
<!-- Created with Inkscape (http://www.inkscape.org/) -->
<svg xmlns:dc="http://purl.org/dc/elements/1.1/" xmlns:cc="http://web.resource.org/cc/" xmlns:rdf="http://www.w3.org/1999/02/22-rdf-syntax-ns#" xmlns:svg="http://www.w3.org/2000/svg" xmlns="http://www.w3.org/2000/svg" xmlns:sodipodi="http://sodipodi.sourceforge.net/DTD/sodipodi-0.dtd" xmlns:inkscape="http://www.inkscape.org/namespaces/inkscape" width="505" height="205" id="svg2" sodipodi:version="0.32" inkscape:version="0.45.1" sodipodi:docbase="C:\Documents and Settings\Owner\Desktop" sodipodi:docname="silver tray.svg" inkscape:output_extension="org.inkscape.output.svg.inkscape" version="1.0">
  <defs id="defs4"/>
  <sodipodi:namedview id="base" pagecolor="#ffffff" bordercolor="#666666" borderopacity="1.0" gridtolerance="10000" guidetolerance="10" objecttolerance="10" inkscape:pageopacity="0.0" inkscape:pageshadow="2" inkscape:zoom="0.5" inkscape:cx="156.44351" inkscape:cy="109.96412" inkscape:document-units="px" inkscape:current-layer="svg2" inkscape:window-width="744" inkscape:window-height="573" inkscape:window-x="369" inkscape:window-y="66" width="505px" height="205px"/>
  <metadata id="metadata7">
    <rdf:RDF>
      <cc:Work rdf:about="">
        <dc:format>image/svg+xml</dc:format>
        <dc:type rdf:resource="http://purl.org/dc/dcmitype/StillImage"/>
      </cc:Work>
    </rdf:RDF>
  </metadata>
  <g inkscape:label="Layer 1" inkscape:groupmode="layer" id="layer1" transform="translate(-14.4287, -20.3354)"/>
  <g id="g2170" transform="translate(446.714, -1156.34)">
    <path style="fill: rgb(255, 255, 255); fill-opacity: 1; stroke: none; stroke-width: 0.3; stroke-linecap: square; stroke-linejoin: round; stroke-miterlimit: 4; stroke-opacity: 1;" d="M -268.57142,1176.6477 L -235.71428,1189.5049 L -19.285707,1288.7906 C 29.843806,1245.0554 -199.04761,1260.9335 -291.42856,1243.0763 L -268.57142,1176.6477 z " id="White" sodipodi:nodetypes="ccccc"/>
    <path id="Silver" d="M -264.78572,1313.6479 L -277.28572,1309.346 C -284.16072,1306.98 -310.03572,1298.485 -334.78572,1290.4682 C -359.53572,1282.4514 -381.50704,1275.0234 -383.61088,1273.9614 C -386.26583,1272.6213 -388.01817,1270.7483 -389.33892,1267.8392 C -391.77345,1262.4769 -391.75003,1261.6584 -389.09124,1259.1813 C -387.71785,1257.9018 -387.25015,1256.7863 -387.84124,1256.1998 C -389.35061,1254.7023 -402.64075,1249.2664 -417.78571,1243.9519 C -438.05873,1236.8379 -441.84136,1234.2997 -442.66102,1227.2599 C -442.94402,1224.8294 -442.17791,1223.4948 -438.39585,1219.8301 C -435.86027,1217.3732 -432.30462,1214.6184 -430.49441,1213.7084 C -427.80914,1212.3585 -316.74778,1174.1412 -290.58066,1165.5627 C -280.29832,1162.1918 -257.28572,1158.9839 -257.28572,1160.9215 C -257.28572,1161.436 -255.08405,1161.6428 -252.37666,1161.3826 C -243.57425,1160.5368 -241.51187,1161.0647 -114.78571,1196.5975 C -93.885711,1202.4576 -68.685711,1209.5046 -58.785711,1212.2575 C -48.885711,1215.0103 -37.860711,1218.11 -34.285711,1219.1457 C -30.710711,1220.1815 -14.370151,1224.6725 2.0266486,1229.1258 C 39.984729,1239.435 41.305319,1239.9416 48.796289,1247.0698 C 54.688169,1252.6763 54.842279,1252.9541 54.164749,1256.745 C 53.781089,1258.8916 52.517409,1261.6891 51.356569,1262.9616 C 49.088539,1265.4479 48.624919,1265.68 -0.28571143,1288.8165 C -18.160711,1297.2721 -33.460711,1305.0342 -34.285711,1306.0658 C -36.165431,1308.4162 -39.654121,1310.1415 -60.630251,1319.0948 C -93.218901,1333.0046 -127.79598,1348.2987 -128.7372,1349.2198 L -264.78572,1313.6479 z M -18.073591,1274.7663 C -16.685351,1272.5949 -30.636071,1267.5305 -48.785711,1263.6171 C -53.185711,1262.6684 -57.685711,1261.5405 -58.785711,1261.1107 C -62.982131,1259.4711 -64.239121,1259.2635 -64.770001,1260.1225 C -65.071581,1260.6105 -64.839141,1261.3059 -64.253461,1261.6678 C -63.504411,1262.1308 -63.513971,1262.718 -64.285711,1263.6479 C -65.573821,1265.2 -63.955361,1266.6798 -62.173911,1265.5788 C -61.562411,1265.2009 -60.774911,1265.3319 -60.423911,1265.8698 C -60.072901,1266.4078 -53.059271,1269.0826 -44.838061,1271.8138 C -32.176811,1276.0201 -29.041131,1276.7109 -24.338061,1276.3299 C -21.284271,1276.0825 -18.465261,1275.3789 -18.073591,1274.7663 z M -252.28572,1238.1146 C -251.01862,1237.2676 -251.22136,1236.7265 -253.59148,1234.6299 C -257.10382,1231.5229 -261.51239,1231.4015 -264.24676,1234.3365 C -267.82251,1238.1746 -266.8274,1239.153 -259.36905,1239.1326 C -256.29822,1239.1242 -253.11072,1238.6661 -252.28572,1238.1146 z M -252.78572,1224.0646 C -252.78572,1223.1188 -253.92134,1222.6479 -256.20239,1222.6479 C -260.3973,1222.6479 -261.50032,1224.8419 -257.59501,1225.418 C -253.74213,1225.9863 -252.78572,1225.7172 -252.78572,1224.0646 z M -254.21998,1208.1127 C -253.11079,1207.5191 -252.28572,1206.0262 -252.28572,1204.6127 C -252.28572,1203.2571 -252.39822,1202.1453 -252.53572,1202.1421 C -252.67322,1202.1389 -255.43745,1201.7021 -258.67845,1201.1713 C -261.91945,1200.6406 -264.95195,1200.4416 -265.41734,1200.7292 C -266.3578,1201.3105 -263.7654,1205.9533 -261.41456,1207.8979 C -259.57651,1209.4184 -256.81372,1209.5009 -254.21998,1208.1127 z M -252.48572,1195.9479 C -251.05146,1194.5136 -250.89582,1190.5069 -252.24205,1189.6749 C -252.76803,1189.3498 -252.95823,1188.4581 -252.66473,1187.6932 C -252.02624,1186.0293 -255.64543,1182.1479 -257.83538,1182.1479 C -258.68769,1182.1479 -260.71269,1182.8345 -262.33538,1183.6736 C -264.80713,1184.9518 -265.28324,1185.8034 -265.27041,1188.9236 C -265.26199,1190.972 -264.91178,1193.188 -264.49218,1193.8481 C -262.6798,1196.6992 -254.64267,1198.1049 -252.48572,1195.9479 z M -261.03572,1191.4856 C -261.72322,1191.2082 -262.28572,1190.1187 -262.28572,1189.0646 C -262.28572,1187.7096 -261.58437,1187.1479 -259.89271,1187.1479 C -257.18768,1187.1479 -255.87375,1189.3359 -257.56386,1191.0261 C -258.7638,1192.226 -259.09294,1192.2696 -261.03572,1191.4856 z " style="fill: rgb(174, 183, 199);" sodipodi:nodetypes="ccsssssssssssssssssssssscccsssssssssccsssccssccsssssccssssssccsssc"/>
    <path id="Light Gray" d="M -257.40265,1315.1808 L -293.73704,1303.1829 C -313.72096,1296.584 -340.69986,1287.7432 -353.69015,1283.5367 C -372.65664,1277.395 -377.84523,1275.3286 -380.03188,1273.0463 C -383.63114,1269.2895 -384.0322,1263.9455 -380.82143,1262.5257 C -375.95612,1260.3743 -378.91581,1257.3832 -390.07143,1253.1777 C -394.47143,1251.519 -404.59643,1247.8709 -412.57143,1245.0709 C -426.88322,1240.0461 -430.90567,1238.0076 -432.97162,1234.7323 C -433.72806,1233.5331 -433.69111,1232.7247 -432.84102,1231.8746 C -431.92707,1230.9606 -429.87089,1231.3921 -423.86349,1233.7586 C -416.01821,1236.849 -300.0312,1274.992 -193.76484,1309.4279 C -131.06974,1329.7444 -126.45404,1330.8387 -111.05694,1329.0364 C -94.425843,1327.0895 -83.162843,1323.015 -45.071443,1305.1653 C 11.461957,1278.6738 47.712157,1262.005 48.790757,1262.005 C 49.471557,1262.005 50.535657,1261.4979 51.155357,1260.8782 C 52.596357,1259.4373 57.428557,1260.6003 57.428557,1262.388 C 57.428557,1264.3388 51.337757,1268.2224 39.928557,1273.5463 C 34.428557,1276.1128 20.253557,1282.7051 8.4285571,1288.1959 C -14.729843,1298.9491 -26.878643,1305.2311 -30.098343,1308.1174 C -31.213143,1309.1168 -38.638143,1312.7074 -46.598343,1316.0965 C -76.308743,1328.7459 -118.33674,1347.387 -126.06324,1351.3424 C -136.45314,1356.6612 -140.11624,1356.647 -156.07144,1351.2263 C -162.67144,1348.984 -169.75894,1346.8418 -171.82144,1346.4659 L -257.40265,1315.1808 z M -103.99744,1336.5385 C -98.142543,1334.0922 -100.62134,1332.6032 -108.96114,1333.5568 C -117.45134,1334.5276 -122.39784,1334.5088 -128.95304,1333.4808 C -135.74304,1332.4159 -134.79104,1334.87 -127.49194,1337.2474 C -121.17904,1339.3036 -109.79304,1338.9601 -103.99744,1336.5385 z M -56.571443,1294.3895 C -61.246443,1293.0268 -72.271443,1289.7065 -81.071443,1287.0111 C -89.871443,1284.3158 -105.84644,1279.5889 -116.57144,1276.5071 C -138.12974,1270.3122 -154.57144,1265.0752 -154.57144,1264.4035 C -154.57144,1263.4876 -121.52214,1272.1912 -81.571443,1283.6282 C -65.346443,1288.273 -49.708943,1292.7455 -46.821443,1293.5671 C -43.933943,1294.3887 -41.571443,1295.4983 -41.571443,1296.0329 C -41.571443,1297.6613 -47.621343,1296.9984 -56.571443,1294.3895 z M -39.571443,1287.7637 C -49.288843,1285.3268 -123.90484,1264.2359 -136.07144,1260.4871 C -143.77144,1258.1145 -158.59594,1253.6216 -169.01484,1250.5027 C -188.67334,1244.6181 -198.97914,1241.0794 -198.33474,1240.435 C -197.74994,1239.8503 -183.87804,1243.3542 -162.62204,1249.4558 C -151.92494,1252.5264 -142.78524,1254.9096 -142.31164,1254.7518 C -141.47754,1254.4737 -189.98814,1239.9385 -223.57144,1230.404 C -232.64644,1227.8275 -241.90094,1224.8838 -244.13717,1223.8623 C -246.37327,1222.8408 -248.88827,1222.005 -249.72587,1222.005 C -252.14792,1222.005 -267.17379,1226.9034 -278.07143,1231.2457 C -288.20657,1235.284 -324.41138,1249.0736 -336.87815,1253.6437 C -343.87689,1256.2094 -348.34389,1256.189 -350.50785,1253.5816 C -351.72622,1252.1136 -351.763,1252.1293 -320.07143,1240.5307 C -309.07143,1236.5049 -292.19643,1230.1824 -282.57143,1226.4807 L -265.07143,1219.7505 L -250.07147,1219.4314 L -235.07144,1219.1122 L -218.57144,1224.0008 C -181.73064,1234.916 -90.291343,1262.1237 -79.071443,1265.5089 C -19.311743,1283.5396 -21.263943,1282.831 -21.759443,1286.3127 C -22.045443,1288.3228 -22.653043,1288.5107 -29.071443,1288.5732 C -32.921443,1288.6107 -37.646443,1288.2464 -39.571443,1287.7637 z M -7.5714429,1267.4727 C -11.696443,1266.0904 -23.621443,1262.4731 -34.071443,1259.4341 C -60.790443,1251.6639 -74.915243,1247.342 -83.369143,1244.35 C -87.382943,1242.9295 -90.899243,1241.9995 -91.183043,1242.2833 C -91.466943,1242.5672 -88.857943,1243.7622 -85.385243,1244.9389 C -81.912643,1246.1155 -77.946443,1247.7405 -76.571443,1248.5498 L -74.071443,1250.0213 L -77.071443,1249.3512 C -78.721443,1248.9827 -96.721443,1243.1071 -117.07144,1236.2943 C -137.42144,1229.4815 -159.92144,1222.1696 -167.07144,1220.0455 C -194.09084,1212.0187 -227.25694,1203.0039 -232.07144,1202.378 C -238.83244,1201.499 -240.57144,1200.4506 -240.57144,1197.2533 C -240.57144,1193.2954 -243.56677,1186.0834 -247.19937,1181.2952 C -249.97427,1177.6376 -250.56007,1177.2864 -251.66541,1178.6183 C -252.36514,1179.4614 -254.6255,1181.0123 -256.68845,1182.0647 C -261.52574,1184.5325 -263.57143,1187.5355 -263.57143,1192.1685 C -263.57143,1196.8701 -264.44392,1197.3741 -269.16712,1195.4006 C -272.34499,1194.0728 -273.64528,1194.0084 -277.02335,1195.0116 C -283.27051,1196.8668 -334.23381,1216.6322 -361.81818,1227.8981 C -388.44615,1238.7733 -391.02324,1239.3444 -398.3882,1236.002 C -403.52635,1233.6702 -415.57143,1222.4206 -415.57143,1219.9535 C -415.57143,1217.883 -416.93455,1218.4624 -392.07143,1209.9647 C -373.22565,1203.5236 -316.58278,1183.969 -284.6356,1172.8749 L -270.19977,1167.8619 L -250.13557,1168.2466 L -230.07144,1168.6314 L -206.07144,1175.8664 C -171.39624,1186.3196 -61.653243,1217.0957 8.9285571,1236.1606 C 34.955657,1243.1908 39.428557,1244.8449 39.428557,1247.4395 C 39.428557,1250.2714 26.059157,1261.2183 17.620957,1265.2955 C 7.0694571,1270.3939 2.3607571,1270.8008 -7.5714429,1267.4727 z M -161.07144,1263.005 C -162.33204,1262.4633 -162.51684,1262.1456 -161.57144,1262.1456 C -160.74644,1262.1456 -159.17144,1262.5323 -158.07144,1263.005 C -156.81074,1263.5467 -156.62594,1263.8644 -157.57144,1263.8644 C -158.39644,1263.8644 -159.97144,1263.4777 -161.07144,1263.005 z M -269.39475,1240.3379 C -268.9082,1237.8291 -266.57143,1237.4846 -266.57143,1239.9217 C -266.57143,1241.15 -267.21712,1242.005 -268.14475,1242.005 C -269.07599,1242.005 -269.58613,1241.3246 -269.39475,1240.3379 z M -239.34114,1240.4537 C -242.44674,1238.2785 -244.12887,1235.005 -242.14104,1235.005 C -240.74574,1235.005 -234.57144,1240.2794 -234.57144,1241.4713 C -234.57144,1242.5283 -237.17114,1241.9737 -239.34114,1240.4537 z " style="fill: rgb(116, 122, 134);" sodipodi:nodetypes="ccsssssssssssssssssssscccsssccssssssccsssssssssssscccccsssccsssscccsssssssssssssscccccsssccsssccssccssc"/>
    <path id="Dark Gray" d="M -257.73611,1318.1567 C -258.47053,1317.5561 -284.04643,1308.8742 -314.57143,1298.8635 C -345.09643,1288.8528 -372.00598,1279.9627 -374.37044,1279.1077 C -382.37772,1276.212 -385.20013,1268.9439 -379.83497,1265.0356 C -374.7615,1261.3399 -377.23389,1260.0327 -413.51892,1247.227 C -427.77069,1242.1972 -434.21514,1238.1552 -431.83273,1235.7404 C -430.83994,1234.734 -429.54956,1234.9161 -425.33273,1236.6573 C -419.0996,1239.231 -379.43376,1252.3804 -296.57143,1279.3421 C -263.29643,1290.1691 -213.57143,1306.3668 -186.07143,1315.3369 C -158.57143,1324.307 -134.83393,1331.9283 -133.32143,1332.2732 C -129.84402,1333.0662 -129.7284,1334.8622 -133.15476,1334.8622 C -136.79245,1334.8622 -135.78854,1336.9533 -131.01697,1339.3152 C -125.39941,1342.0958 -111.51766,1342.6694 -104.69361,1340.4028 C -101.88935,1339.4713 -99.30701,1338.2434 -98.95508,1337.6739 C -98.04078,1336.1946 -100.53399,1334.8953 -104.32143,1334.8775 C -107.78515,1334.8612 -108.73362,1333.3428 -105.82143,1332.4762 C -104.85893,1332.1898 -101.00464,1331.2591 -97.25633,1330.4081 C -88.51479,1328.4234 -74.42763,1322.6885 -53.07143,1312.4206 C -43.72143,1307.9251 -32.47143,1302.734 -28.07143,1300.8848 C -23.67143,1299.0356 -11.37624,1293.324 -0.74878,1288.1924 C 9.87867,1283.0608 18.71722,1278.8622 18.89243,1278.8622 C 19.06764,1278.8622 25.36687,1275.9372 32.89071,1272.3622 C 40.41455,1268.7872 47.3485,1265.8622 48.29949,1265.8622 C 50.13127,1265.8622 52.42857,1267.6789 52.42857,1269.1274 C 52.42857,1269.6033 47.59107,1272.2372 41.67857,1274.9806 C 35.76607,1277.7239 28.67857,1281.0181 25.92857,1282.301 C 2.89343,1293.0471 -8.9157,1297.9232 -9.52369,1296.9394 C -10.28698,1295.7044 -16.26687,1296.5604 -17.17833,1298.0352 C -17.48923,1298.5382 -17.22839,1299.5706 -16.59868,1300.3294 C -15.67982,1301.4365 -16.40326,1302.2413 -20.26259,1304.4051 C -22.90745,1305.8881 -26.98217,1308.387 -29.31751,1309.9584 C -33.51736,1312.7843 -45.98147,1318.3999 -58.57143,1323.1384 C -62.14643,1324.4839 -68.22143,1327.1632 -72.07143,1329.0924 C -75.92143,1331.0215 -80.19643,1332.9437 -81.57143,1333.3639 C -82.94643,1333.784 -87.44643,1335.685 -91.57143,1337.5882 C -95.69643,1339.4915 -104.47143,1343.4684 -111.07143,1346.4258 C -117.67143,1349.3832 -125.72234,1353.1662 -128.96235,1354.8325 C -132.32528,1356.5621 -136.40626,1357.8622 -138.47216,1357.8622 C -140.46254,1357.8622 -149.50775,1355.4278 -158.57262,1352.4524 L -257.73611,1318.1567 z M -72.07143,1291.3453 C -75.92143,1290.0165 -77.53949,1289.1902 -75.66713,1289.5091 C -71.46828,1290.2242 -61.50693,1293.7075 -63.57143,1293.7387 C -64.39643,1293.7512 -68.22143,1292.6742 -72.07143,1291.3453 z M -35.57143,1288.3351 C -90.83206,1271.6484 -166.80803,1248.9202 -182.57143,1244.36 C -238.68695,1228.1263 -246.57143,1225.5737 -246.57143,1223.6402 C -246.57143,1223.0368 -243.54577,1222.8115 -238.82143,1223.063 C -232.8492,1223.3809 -225.1073,1225.2644 -205.07143,1231.274 C -190.77143,1235.5632 -150.49643,1247.5987 -115.57143,1258.0195 C -19.39613,1286.7161 -20.98966,1286.1825 -22.1809,1289.2869 C -23.1139,1291.7182 -24.75379,1291.6017 -35.57143,1288.3351 z M -109.22871,1270.4247 C -133.22137,1263.562 -144.90392,1259.8613 -144.34397,1259.3014 C -143.39765,1258.3551 -86.53276,1274.7132 -84.65476,1276.472 C -83.48543,1277.5671 -89.02037,1276.205 -109.22871,1270.4247 z M 6.4276,1269.1122 C 6.42684,1267.7419 3.44353,1266.4167 -7.3224,1263.0046 C -31.75047,1255.2625 -48.05455,1251.8116 -48.8553,1254.2138 C -49.41753,1255.9005 -62.2761,1252.5426 -85.57143,1244.6257 C -110.09326,1236.2921 -140.67036,1226.9425 -153.07903,1223.9839 C -199.63651,1212.8832 -235.01728,1203.567 -237.06204,1201.87 C -237.91954,1201.1583 -238.57143,1198.9888 -238.57143,1196.8467 C -238.57143,1194.5699 -239.11616,1192.8671 -239.94644,1192.5485 C -240.81659,1192.2146 -241.58952,1189.5134 -242.05157,1185.1915 C -242.45315,1181.4354 -243.44258,1177.0829 -244.2503,1175.5193 C -246.01869,1172.096 -245.80435,1171.8216 -240.90402,1171.236 C -236.37207,1170.6944 -229.52687,1172.3569 -200.07143,1181.1532 C -174.24133,1188.8669 -68.40712,1218.5512 -17.57143,1232.3408 C 32.81839,1246.0094 35.72005,1246.8734 37.74534,1248.8121 C 39.48968,1250.4819 39.2715,1250.8203 32.2731,1257.2998 C 24.61221,1264.3926 20.17359,1267.124 12.54709,1269.4388 C 6.6616,1271.2251 6.42876,1271.2127 6.4276,1269.1122 z M 52.49257,1266.4393 C 51.81267,1265.6201 51.52058,1264.5223 51.84348,1263.9999 C 52.76923,1262.502 56.56111,1263.9368 56.22699,1265.6586 C 55.80817,1267.8169 53.95705,1268.2039 52.49257,1266.4393 z M -348.57143,1256.8469 C -350.68406,1255.46 -349.40716,1254.762 -335.57143,1249.7399 C -329.24643,1247.4441 -313.27143,1241.5295 -300.07143,1236.5964 C -286.87143,1231.6634 -273.14643,1226.5646 -269.57143,1225.2658 C -263.05061,1222.8968 -255.15492,1222.1091 -254.15457,1223.7277 C -253.86038,1224.2037 -258.22132,1226.1752 -263.84555,1228.1088 C -269.46979,1230.0424 -287.12143,1236.6688 -303.07143,1242.8342 C -345.23073,1259.1304 -345.13688,1259.1015 -348.57143,1256.8469 z M -393.07143,1239.8625 C -394.72143,1239.4963 -397.63335,1238.3835 -399.54237,1237.3895 C -404.26448,1234.9309 -414.57143,1224.9588 -414.57143,1222.8488 C -414.57143,1221.4941 -406.5391,1218.3949 -375.82143,1207.8977 C -354.50893,1200.6146 -330.77143,1192.6636 -323.07143,1190.2289 C -315.37143,1187.7942 -306.82143,1184.8696 -304.07143,1183.7298 C -291.15968,1178.3781 -270.72636,1171.8705 -266.82143,1171.8665 C -264.48393,1171.8641 -262.5718,1171.9747 -262.57225,1172.1122 C -262.5727,1172.2497 -263.34583,1175.7372 -264.29033,1179.8622 C -265.23482,1183.9872 -266.01733,1189.5496 -266.02923,1192.2231 L -266.05088,1197.084 L -270.85588,1196.5149 C -273.49863,1196.2019 -276.65326,1196.3642 -277.86616,1196.8756 C -279.07906,1197.387 -292.9403,1202.7354 -308.66891,1208.761 C -324.39752,1214.7865 -347.34752,1223.869 -359.66891,1228.9442 C -385.73467,1239.6808 -389.03232,1240.7587 -393.07143,1239.8625 z " style="fill: rgb(91, 91, 90);" sodipodi:nodetypes="cssssssssssssssssssssssssssssssssssssscccssccssssssccssccsssssssssssssssccssccssssssccsssssssscccsssc"/>
    <path id="Black" d="M -368.23495,1279.5309 C -385.50406,1274.0534 -387.85231,1272.8335 -389.00198,1268.7424 C -389.78739,1265.9476 -389.5858,1265.2265 -387.52731,1263.4674 C -386.21586,1262.3468 -385.14286,1260.6993 -385.14286,1259.8063 C -385.14286,1257.0422 -390.37495,1253.6056 -398.17515,1251.2464 C -450.16835,1232.6409 -407.06721,1244.6187 -382.64286,1252.6291 C -355.15454,1261.5228 -239.45893,1299.5254 -229.14286,1303.0494 C -217.39373,1307.0629 -202.58557,1313.1809 -201.33756,1314.5373 C -200.95547,1314.9525 -202.2038,1314.9942 -204.11161,1314.6299 C -215.50962,1312.4533 -189.21239,1321.8565 -151.64286,1333.3913 C -147.24286,1334.7422 -141.16786,1336.7682 -138.14286,1337.8936 C -135.11786,1339.019 -130.99216,1339.9544 -128.97465,1339.9724 C -121.57886,1340.0382 -121.63019,1341.0627 -129.23608,1345.1897 C -133.20971,1347.3459 -137.575,1349.9864 -138.93672,1351.0575 C -143.35125,1354.53 -150.18768,1353.6853 -168.70529,1347.3795 L -368.23495,1279.5309 z M -209.64286,1313.005 C -209.98278,1312.455 -210.93589,1312.005 -211.76089,1312.005 C -212.58589,1312.005 -212.98278,1312.455 -212.64286,1313.005 C -212.30294,1313.555 -211.34983,1314.005 -210.52483,1314.005 C -209.69983,1314.005 -209.30294,1313.555 -209.64286,1313.005 z M -323.29559,1203.0669 C -320.06969,1200.9941 -314.14286,1199.1933 -314.14286,1200.286 C -314.14286,1200.5781 -316.05536,1201.4867 -318.39286,1202.3052 C -320.73036,1203.1238 -323.54286,1204.1139 -324.64286,1204.5056 C -325.74286,1204.8973 -325.13659,1204.2499 -323.29559,1203.0669 z " style="fill: rgb(27, 27, 28);" sodipodi:nodetypes="csssccsssssssscccsssccsssc"/>
  </g>
</svg>